<mxfile host="app.diagrams.net" modified="2020-11-02T12:44:42.219Z" agent="5.0 (Windows)" etag="n_FbnSIPPKAT5EuM3xNo" version="13.7.1" type="github">
  <diagram id="OfvQ3bvJZitPIw4MEcuv" name="Page-1">
    <mxGraphModel dx="2805" dy="2273" grid="1" gridSize="10" guides="1" tooltips="1" connect="1" arrows="1" fold="1" page="1" pageScale="1" pageWidth="850" pageHeight="1100" math="0" shadow="0">
      <root>
        <mxCell id="0" />
        <mxCell id="1" parent="0" />
        <mxCell id="zgTjozW6Owz9I_oblLZV-2" value="&lt;font style=&quot;font-size: 24px&quot;&gt;Healthcenter&lt;/font&gt;" style="rounded=1;whiteSpace=wrap;html=1;" vertex="1" parent="1">
          <mxGeometry x="-40" width="160" height="80" as="geometry" />
        </mxCell>
        <mxCell id="zgTjozW6Owz9I_oblLZV-4" value="Patient" style="shape=umlActor;verticalLabelPosition=bottom;verticalAlign=top;html=1;outlineConnect=0;" vertex="1" parent="1">
          <mxGeometry x="425" y="-30" width="50" height="100" as="geometry" />
        </mxCell>
        <mxCell id="zgTjozW6Owz9I_oblLZV-5" value="&lt;div&gt;Doctor&lt;/div&gt;" style="shape=umlActor;verticalLabelPosition=bottom;verticalAlign=top;html=1;outlineConnect=0;" vertex="1" parent="1">
          <mxGeometry x="870" y="-30" width="45" height="100" as="geometry" />
        </mxCell>
        <mxCell id="zgTjozW6Owz9I_oblLZV-6" value="&lt;font style=&quot;font-size: 24px&quot;&gt;Interventions&lt;/font&gt;" style="rounded=1;whiteSpace=wrap;html=1;" vertex="1" parent="1">
          <mxGeometry x="1260" width="150" height="80" as="geometry" />
        </mxCell>
        <mxCell id="zgTjozW6Owz9I_oblLZV-8" value="&lt;font style=&quot;font-size: 24px&quot;&gt;Units&lt;/font&gt;" style="rounded=1;whiteSpace=wrap;html=1;" vertex="1" parent="1">
          <mxGeometry x="-380" width="160" height="80" as="geometry" />
        </mxCell>
        <mxCell id="zgTjozW6Owz9I_oblLZV-9" value="&lt;font style=&quot;font-size: 24px&quot;&gt;Name&lt;/font&gt;" style="ellipse;shape=cloud;whiteSpace=wrap;html=1;" vertex="1" parent="1">
          <mxGeometry x="-100" y="-100" width="120" height="80" as="geometry" />
        </mxCell>
        <mxCell id="zgTjozW6Owz9I_oblLZV-10" value="&lt;font style=&quot;font-size: 24px&quot;&gt;Adress&lt;/font&gt;" style="ellipse;shape=cloud;whiteSpace=wrap;html=1;" vertex="1" parent="1">
          <mxGeometry x="70" y="-100" width="120" height="80" as="geometry" />
        </mxCell>
        <mxCell id="zgTjozW6Owz9I_oblLZV-12" value="&lt;font style=&quot;font-size: 18px&quot;&gt;Indentifier&lt;/font&gt;" style="ellipse;shape=cloud;whiteSpace=wrap;html=1;" vertex="1" parent="1">
          <mxGeometry x="-505" y="-90" width="150" height="90" as="geometry" />
        </mxCell>
        <mxCell id="zgTjozW6Owz9I_oblLZV-13" value="&lt;font style=&quot;font-size: 18px&quot;&gt;Floor&lt;/font&gt;" style="ellipse;shape=cloud;whiteSpace=wrap;html=1;" vertex="1" parent="1">
          <mxGeometry x="-340" y="-110" width="120" height="80" as="geometry" />
        </mxCell>
        <mxCell id="zgTjozW6Owz9I_oblLZV-14" value="&lt;font style=&quot;font-size: 18px&quot;&gt;Name&lt;/font&gt;" style="ellipse;shape=cloud;whiteSpace=wrap;html=1;" vertex="1" parent="1">
          <mxGeometry x="-550" width="150" height="90" as="geometry" />
        </mxCell>
        <mxCell id="zgTjozW6Owz9I_oblLZV-15" value="&lt;font style=&quot;font-size: 18px&quot;&gt;Doctor in Charge&lt;/font&gt;" style="ellipse;shape=cloud;whiteSpace=wrap;html=1;" vertex="1" parent="1">
          <mxGeometry x="-460" y="90" width="120" height="90" as="geometry" />
        </mxCell>
        <mxCell id="zgTjozW6Owz9I_oblLZV-17" value="&lt;font style=&quot;font-size: 18px&quot;&gt;Doctors Available&lt;/font&gt;" style="ellipse;shape=cloud;whiteSpace=wrap;html=1;" vertex="1" parent="1">
          <mxGeometry x="-330" y="90" width="140" height="110" as="geometry" />
        </mxCell>
        <mxCell id="zgTjozW6Owz9I_oblLZV-19" value="&lt;font style=&quot;font-size: 18px&quot;&gt;Unit Admitted&lt;/font&gt;" style="ellipse;shape=cloud;whiteSpace=wrap;html=1;" vertex="1" parent="1">
          <mxGeometry x="450" y="-140" width="110" height="100" as="geometry" />
        </mxCell>
        <mxCell id="zgTjozW6Owz9I_oblLZV-21" value="&lt;font style=&quot;font-size: 18px&quot;&gt;Social Security Number&lt;/font&gt;" style="ellipse;shape=cloud;whiteSpace=wrap;html=1;" vertex="1" parent="1">
          <mxGeometry x="340" y="-150" width="120" height="110" as="geometry" />
        </mxCell>
        <mxCell id="zgTjozW6Owz9I_oblLZV-23" value="&lt;font style=&quot;font-size: 18px&quot;&gt;Age&lt;/font&gt;" style="ellipse;shape=cloud;whiteSpace=wrap;html=1;" vertex="1" parent="1">
          <mxGeometry x="490" y="-50" width="120" height="110" as="geometry" />
        </mxCell>
        <mxCell id="zgTjozW6Owz9I_oblLZV-24" value="&lt;font style=&quot;font-size: 18px&quot;&gt;Date of Admision&lt;/font&gt;" style="ellipse;shape=cloud;whiteSpace=wrap;html=1;" vertex="1" parent="1">
          <mxGeometry x="280" y="-60" width="130" height="120" as="geometry" />
        </mxCell>
        <mxCell id="zgTjozW6Owz9I_oblLZV-26" value="&lt;font style=&quot;font-size: 18px&quot;&gt;Name&lt;/font&gt;" style="ellipse;shape=cloud;whiteSpace=wrap;html=1;" vertex="1" parent="1">
          <mxGeometry x="830" y="-140" width="110" height="100" as="geometry" />
        </mxCell>
        <mxCell id="zgTjozW6Owz9I_oblLZV-27" value="&lt;font style=&quot;font-size: 18px&quot;&gt;Code&lt;/font&gt;" style="ellipse;shape=cloud;whiteSpace=wrap;html=1;" vertex="1" parent="1">
          <mxGeometry x="910" y="-80" width="110" height="100" as="geometry" />
        </mxCell>
        <mxCell id="zgTjozW6Owz9I_oblLZV-28" value="&lt;font style=&quot;font-size: 18px&quot;&gt;speciality&lt;/font&gt;" style="ellipse;shape=cloud;whiteSpace=wrap;html=1;" vertex="1" parent="1">
          <mxGeometry x="750" y="-70" width="120" height="100" as="geometry" />
        </mxCell>
        <mxCell id="zgTjozW6Owz9I_oblLZV-30" value="&lt;font style=&quot;font-size: 18px&quot;&gt;doctor&lt;/font&gt;" style="ellipse;shape=cloud;whiteSpace=wrap;html=1;" vertex="1" parent="1">
          <mxGeometry x="1340" y="-110" width="110" height="100" as="geometry" />
        </mxCell>
        <mxCell id="zgTjozW6Owz9I_oblLZV-31" value="&lt;font style=&quot;font-size: 18px&quot;&gt;Date&lt;/font&gt;" style="ellipse;shape=cloud;whiteSpace=wrap;html=1;" vertex="1" parent="1">
          <mxGeometry x="1220" y="-110" width="110" height="100" as="geometry" />
        </mxCell>
        <mxCell id="zgTjozW6Owz9I_oblLZV-32" value="&lt;font style=&quot;font-size: 18px&quot;&gt;Symtom&lt;/font&gt;" style="ellipse;shape=cloud;whiteSpace=wrap;html=1;" vertex="1" parent="1">
          <mxGeometry x="1140" y="-45" width="110" height="100" as="geometry" />
        </mxCell>
        <mxCell id="zgTjozW6Owz9I_oblLZV-33" value="&lt;font style=&quot;font-size: 18px&quot;&gt;treatment&lt;/font&gt;" style="ellipse;shape=cloud;whiteSpace=wrap;html=1;" vertex="1" parent="1">
          <mxGeometry x="1420" y="-40" width="120" height="100" as="geometry" />
        </mxCell>
      </root>
    </mxGraphModel>
  </diagram>
</mxfile>
